<svg xmlns="http://www.w3.org/2000/svg" width="256.334" height="78.879" viewBox="0 0 256.334 78.879"><path d="M37.512-38.742q-1.09-.668-2.408-1.318A21.682,21.682,0,0,0,32.291-41.2a25.194,25.194,0,0,0-3.146-.809,18.287,18.287,0,0,0-3.445-.316,9.172,9.172,0,0,0-3.375.545,6.359,6.359,0,0,0-2.18,1.354,4.926,4.926,0,0,0-1.16,1.74,4.948,4.948,0,0,0-.352,1.74A5.917,5.917,0,0,0,19-34.822a6.135,6.135,0,0,0,1.16,1.863,12.754,12.754,0,0,0,2.074,1.828q1.283.932,3.111,2.057A40.872,40.872,0,0,1,29.584-26.1a18.823,18.823,0,0,1,3.146,3.2A12.7,12.7,0,0,1,34.7-19.2a14.184,14.184,0,0,1,.668,4.5,16.723,16.723,0,0,1-.334,3.164,14.982,14.982,0,0,1-1.143,3.463,14.064,14.064,0,0,1-2.232,3.357A13.938,13.938,0,0,1,28.09-1.863,20.269,20.269,0,0,1,22.939.123a28.956,28.956,0,0,1-7.014.756,31.431,31.431,0,0,1-4.377-.3A34.261,34.261,0,0,1,7.506-.229,35.52,35.52,0,0,1,3.938-1.371a26.869,26.869,0,0,1-2.918-1.3l1.934-9.984a26.564,26.564,0,0,0,2.83,1.793,24.816,24.816,0,0,0,3.2,1.477,21.342,21.342,0,0,0,3.463.984,18.775,18.775,0,0,0,3.621.352,11.534,11.534,0,0,0,3.41-.439A6.218,6.218,0,0,0,21.762-9.7,4.493,4.493,0,0,0,23.027-11.5a6.094,6.094,0,0,0,.387-2.18,5.637,5.637,0,0,0-.369-2.092,5.459,5.459,0,0,0-1.213-1.793A14.253,14.253,0,0,0,19.6-19.354q-1.389-.932-3.393-2.092a29.259,29.259,0,0,1-3.9-2.584,16.393,16.393,0,0,1-3.023-3.094,13.586,13.586,0,0,1-1.969-3.8,14.559,14.559,0,0,1-.7-4.658,15.738,15.738,0,0,1,1.09-5.73,13.8,13.8,0,0,1,3.41-5.027A17.219,17.219,0,0,1,17.033-49.9a24.465,24.465,0,0,1,8.6-1.354,34.141,34.141,0,0,1,4.008.229q1.934.229,3.691.615t3.3.879q1.547.492,2.813,1.02ZM80.293-36.07a19.715,19.715,0,0,1-1.3,7.119,15.857,15.857,0,0,1-4.043,5.959,20.019,20.019,0,0,1-6.961,4.1A29.674,29.674,0,0,1,57.9-17.367H50.832L47.175,0H35.715L46.437-50.414h17.3a22.271,22.271,0,0,1,7.418,1.107,14.305,14.305,0,0,1,5.15,3.023,11.97,11.97,0,0,1,3.006,4.535A16.011,16.011,0,0,1,80.293-36.07ZM68.269-35.3A5.907,5.907,0,0,0,66.3-39.955a8.515,8.515,0,0,0-5.8-1.74H56.035L52.695-25.98h5.2a12.894,12.894,0,0,0,4.658-.756,9.016,9.016,0,0,0,3.217-2.039,8.168,8.168,0,0,0,1.881-2.971A10.285,10.285,0,0,0,68.269-35.3Zm59.515,5.7a35.739,35.739,0,0,1-.527,6.082,34.682,34.682,0,0,1-1.564,5.924,32.313,32.313,0,0,1-2.6,5.5,26.789,26.789,0,0,1-3.639,4.816A27.625,27.625,0,0,1,115.62-3.9,23.353,23.353,0,0,1,111.1-1.336,26.828,26.828,0,0,1,105.812.3a30.821,30.821,0,0,1-6.152.58A22.758,22.758,0,0,1,90.747-.773,19.05,19.05,0,0,1,84.12-5.326,19.661,19.661,0,0,1,79.99-12.2a25.35,25.35,0,0,1-1.424-8.613,36.984,36.984,0,0,1,.563-6.451,32.346,32.346,0,0,1,1.705-6.117,31.369,31.369,0,0,1,2.848-5.59,28.194,28.194,0,0,1,3.955-4.869,27.161,27.161,0,0,1,3.8-3.041,26.166,26.166,0,0,1,4.395-2.338,25.975,25.975,0,0,1,5.062-1.512,30.327,30.327,0,0,1,5.8-.527,23.915,23.915,0,0,1,8.561,1.477,18.549,18.549,0,0,1,6.662,4.271,19.4,19.4,0,0,1,4.324,6.82A25.18,25.18,0,0,1,127.785-29.6Zm-12.023.387a16.685,16.685,0,0,0-.721-5.1,10.926,10.926,0,0,0-2.057-3.814,8.8,8.8,0,0,0-3.252-2.391,10.867,10.867,0,0,0-4.342-.826,11.534,11.534,0,0,0-5.344,1.3,14.683,14.683,0,0,0-4.5,3.621,16.045,16.045,0,0,0-2.109,3.234A25.591,25.591,0,0,0,91.89-29.32a29.448,29.448,0,0,0-.967,4.166,27.052,27.052,0,0,0-.334,4.2,16.685,16.685,0,0,0,.721,5.1,10.555,10.555,0,0,0,2.057,3.779,8.865,8.865,0,0,0,3.217,2.338,10.533,10.533,0,0,0,4.2.809,12.491,12.491,0,0,0,5.5-1.266,13.068,13.068,0,0,0,4.588-3.762,16.829,16.829,0,0,0,2.145-3.322,24.317,24.317,0,0,0,1.512-3.85,30.17,30.17,0,0,0,.914-4.078A26.579,26.579,0,0,0,115.761-29.215ZM170.5-37.582a13.966,13.966,0,0,1-1.16,5.783,14.012,14.012,0,0,1-3.164,4.482,16.5,16.5,0,0,1-4.693,3.094,21.213,21.213,0,0,1-5.748,1.617v.141a7.694,7.694,0,0,1,3.727,2.672,13.378,13.378,0,0,1,2.32,5.238L165.292,0H153.128l-2.742-12.973a9.15,9.15,0,0,0-2.215-4.729,5.807,5.807,0,0,0-4.324-1.6h-1.934L137.8,0H126.339l10.723-50.414h17.227a23.715,23.715,0,0,1,7.488,1.037,13.813,13.813,0,0,1,5.027,2.813,10.623,10.623,0,0,1,2.813,4.1A13.679,13.679,0,0,1,170.5-37.582ZM158.4-35.719a5.975,5.975,0,0,0-1.723-4.553,7.31,7.31,0,0,0-5.2-1.635H146.73l-3.023,14.027h4.605a13.921,13.921,0,0,0,4.5-.65,9.282,9.282,0,0,0,3.129-1.723,6.934,6.934,0,0,0,1.846-2.5A7.413,7.413,0,0,0,158.4-35.719Zm53.433-5.449h-14.2L188.913,0H177.487l8.684-41.168H171.792l2-9.246h40.043Zm38.984,20.637a50.788,50.788,0,0,1-2.707,8.93,21.057,21.057,0,0,1-4.377,6.75A17.934,17.934,0,0,1,236.967-.6,28.956,28.956,0,0,1,227.088.879a23.272,23.272,0,0,1-7.594-1.16,15.8,15.8,0,0,1-5.73-3.357,14.7,14.7,0,0,1-3.621-5.344,19.042,19.042,0,0,1-1.266-7.154,31.906,31.906,0,0,1,.281-4.025q.281-2.2.7-4.1l5.625-26.156h11.461l-5.7,26.227q-.387,1.863-.7,3.727a19.394,19.394,0,0,0-.316,3.164,9.8,9.8,0,0,0,.615,3.6,7.19,7.19,0,0,0,1.723,2.619,7.4,7.4,0,0,0,2.6,1.6,9.317,9.317,0,0,0,3.217.545,11.3,11.3,0,0,0,3.727-.6,8.1,8.1,0,0,0,3.094-1.969,12.615,12.615,0,0,0,2.426-3.639,26.235,26.235,0,0,0,1.758-5.607l6.4-29.672h11.461Z" transform="translate(-0.918 78)" fill="#6de010"/><path d="M20.5,0,41,11H0Z" transform="translate(215.082 8)" fill="#6de010"/><path d="M20.5,0,41,11H0Z" transform="translate(215.082)" fill="#6de010"/><path d="M6.563,0H5.557l-3.6-5.581a2.332,2.332,0,0,1-.225-.439H1.7a7.209,7.209,0,0,1,.039.962V0H.918V-7H1.982L5.488-1.509q.22.342.283.469h.02a7.408,7.408,0,0,1-.049-1.03V-7h.82Zm5.977-6.26H10.518V0H9.7V-6.26H7.681V-7h4.858ZM18.76-2.832Q18.76.117,16.1.117,13.55.117,13.55-2.72V-7h.82v4.229q0,2.153,1.816,2.153,1.753,0,1.753-2.08V-7h.82ZM28.013-.293a4.107,4.107,0,0,1-1.934.41,3.118,3.118,0,0,1-2.393-.962,3.549,3.549,0,0,1-.9-2.524A3.72,3.72,0,0,1,23.8-6.084a3.431,3.431,0,0,1,2.563-1.035,4.11,4.11,0,0,1,1.65.288v.874a3.347,3.347,0,0,0-1.66-.42,2.547,2.547,0,0,0-1.956.806,3.035,3.035,0,0,0-.75,2.153,2.888,2.888,0,0,0,.7,2.039,2.384,2.384,0,0,0,1.838.759,3.449,3.449,0,0,0,1.826-.469ZM35.083,0H34.077l-3.6-5.581a2.332,2.332,0,0,1-.225-.439H30.22a7.209,7.209,0,0,1,.039.962V0h-.82V-7H30.5l3.506,5.493q.22.342.283.469h.02a7.408,7.408,0,0,1-.049-1.03V-7h.82Zm7.256,0h-.908l-.742-1.963H37.72L37.021,0h-.913l2.686-7h.85ZM40.42-2.7l-1.1-2.983a2.857,2.857,0,0,1-.107-.469h-.02a2.615,2.615,0,0,1-.112.469L37.993-2.7ZM43.369,0V-7H45.3Q49-7,49-3.589a3.439,3.439,0,0,1-1.028,2.6A3.813,3.813,0,0,1,45.225,0Zm.82-6.26V-.742h1.045a2.966,2.966,0,0,0,2.144-.737,2.764,2.764,0,0,0,.767-2.09q0-2.69-2.861-2.69ZM58.354-.479a4.682,4.682,0,0,1-2.344.6A3.2,3.2,0,0,1,53.586-.85a3.546,3.546,0,0,1-.925-2.559,3.641,3.641,0,0,1,1.028-2.668,3.5,3.5,0,0,1,2.6-1.042,4.433,4.433,0,0,1,1.919.371v.908A3.685,3.685,0,0,0,56.2-6.377a2.513,2.513,0,0,0-1.929.811,2.964,2.964,0,0,0-.752,2.1,2.966,2.966,0,0,0,.7,2.087,2.447,2.447,0,0,0,1.895.759,2.927,2.927,0,0,0,1.421-.327V-2.91H56v-.742h2.354ZM62.6,0h-.8V-6.05a1.853,1.853,0,0,1-.271.212,4.417,4.417,0,0,1-.4.237q-.222.117-.469.22a3.407,3.407,0,0,1-.481.161V-6.03a4.655,4.655,0,0,0,.559-.2q.3-.125.581-.278t.54-.322a4.284,4.284,0,0,0,.439-.33h.3Zm6.509-1.982a2.041,2.041,0,0,1-.178.862,1.9,1.9,0,0,1-.5.664,2.321,2.321,0,0,1-.779.427,3.15,3.15,0,0,1-1,.151,2.909,2.909,0,0,1-1.592-.381v-.859a2.551,2.551,0,0,0,1.621.557,2.2,2.2,0,0,0,.662-.093,1.484,1.484,0,0,0,.508-.269,1.193,1.193,0,0,0,.327-.425,1.327,1.327,0,0,0,.115-.562q0-1.372-1.953-1.372h-.581V-3.96H66.3q1.729,0,1.729-1.289,0-1.191-1.318-1.191a2.245,2.245,0,0,0-1.392.5v-.776a3.042,3.042,0,0,1,1.592-.4,2.446,2.446,0,0,1,.8.122,1.824,1.824,0,0,1,.61.342,1.515,1.515,0,0,1,.393.527,1.628,1.628,0,0,1,.139.679,1.709,1.709,0,0,1-1.4,1.777v.02a2.209,2.209,0,0,1,.659.173,1.759,1.759,0,0,1,.522.349,1.556,1.556,0,0,1,.344.505A1.613,1.613,0,0,1,69.106-1.982Z" transform="translate(-0.918 16)" fill="#6de010"/></svg>