<svg xmlns="http://www.w3.org/2000/svg" width="18.023" height="20.593" viewBox="0 0 18.023 20.593"><g transform="translate(-291.002 120.006)"><g transform="translate(291 -120)"><path d="M122.158,338.378c-.145-.032-.293-.059-.437-.1a2.548,2.548,0,0,1-1.856-2.167c-.011-.1-.016-.2-.025-.3H125a4.435,4.435,0,0,1-.064.51,2.526,2.526,0,0,1-2,2c-.086.021-.175.035-.262.053h-.523Z" transform="translate(-113.406 -317.791)" fill="#6de010"/><path d="M9.013,16.726H1.3a1.268,1.268,0,0,1-1.265-1,1.23,1.23,0,0,1,.3-1.148,9.733,9.733,0,0,0,1.089-1.4A7.762,7.762,0,0,0,2.5,10.167a9.96,9.96,0,0,0,.074-1.574,6.3,6.3,0,0,1,.3-2.176A6.38,6.38,0,0,1,7.285,2.161a2.865,2.865,0,0,1,.36-.088c.071-.012.084-.044.083-.107,0-.235,0-.469,0-.7A1.291,1.291,0,0,1,8.887,0a1.272,1.272,0,0,1,1.388,1.063,6.8,6.8,0,0,1,.023.882c0,.078.014.112.1.132a6.447,6.447,0,0,1,4.9,4.9,6.289,6.289,0,0,1,.148,1.345c0,.408,0,.818.018,1.226a7.483,7.483,0,0,0,.715,2.851,7.825,7.825,0,0,0,1.363,2.013,1.661,1.661,0,0,1,.444.728,1.288,1.288,0,0,1-1.234,1.588q-3.87,0-7.741,0Z" fill="#6de010"/></g></g></svg>