<svg xmlns="http://www.w3.org/2000/svg" width="36" height="32" viewBox="0 0 36 32"><g transform="translate(-282 -19.5)"><path d="M18,20a1.5,1.5,0,0,1-1.075-.454l-18-18.5a1.5,1.5,0,0,1,.029-2.121,1.5,1.5,0,0,1,2.121.029l18,18.5A1.5,1.5,0,0,1,18,20Z" transform="translate(291.5 26)" fill="#6de010"/><path d="M0,19a1.5,1.5,0,0,1-1.076-.454,1.5,1.5,0,0,1,.03-2.121l18-17.5a1.5,1.5,0,0,1,2.121.03,1.5,1.5,0,0,1-.03,2.121l-18,17.5A1.5,1.5,0,0,1,0,19Z" transform="translate(291.5 26.5)" fill="#6de010"/><rect width="36" height="32" transform="translate(282 19.5)" fill="rgba(255,255,255,0)"/></g></svg>