<svg xmlns="http://www.w3.org/2000/svg" width="36" height="32" viewBox="0 0 36 32"><g transform="translate(-375 -17.5)"><path d="M24,1.5H0A1.5,1.5,0,0,1-1.5,0,1.5,1.5,0,0,1,0-1.5H24A1.5,1.5,0,0,1,25.5,0,1.5,1.5,0,0,1,24,1.5Z" transform="translate(381.5 24.5)" fill="#6de010"/><path d="M24,1.5H0A1.5,1.5,0,0,1-1.5,0,1.5,1.5,0,0,1,0-1.5H24A1.5,1.5,0,0,1,25.5,0,1.5,1.5,0,0,1,24,1.5Z" transform="translate(381.5 33.5)" fill="#6de010"/><path d="M24,1.5H0A1.5,1.5,0,0,1-1.5,0,1.5,1.5,0,0,1,0-1.5H24A1.5,1.5,0,0,1,25.5,0,1.5,1.5,0,0,1,24,1.5Z" transform="translate(381.5 42.5)" fill="#6de010"/><rect width="36" height="32" transform="translate(375 17.5)" fill="rgba(255,255,255,0)"/></g></svg>