<svg xmlns="http://www.w3.org/2000/svg" width="23.586" height="23.931" viewBox="0 0 23.586 23.931"><g transform="translate(0.004)"><g transform="translate(-0.004)"><path d="M11.78,23.931C-3.95,23.646-3.934.232,11.842,0c15.584.286,15.746,23.629-.065,23.931Zm.331-22.363C-1.563,1.137-2.18,22.234,11.78,22.374,25.284,22.266,25.553,2.077,12.111,1.568Z" transform="translate(0.004)" fill="red"/><path d="M29.163,43.238H25.5c-.286,0-.321-.03-.358-.307q-.368-2.6-.73-5.195l-.614-4.373c-.057-.218.14-.178.291-.183h10.2c.288,0,.291,0,.251.288q-.6,4.276-1.2,8.555c-.043.315-.089.63-.135.943-.032.224-.084.269-.31.272H29.166Zm.469-5.068H29.61V35.214a.425.425,0,0,0-.412-.455c-.369-.038-.528.334-.5.66,0,1.926-.005,3.853.019,5.779a.451.451,0,0,0,.9.054c.027-1.027,0-2.053.011-3.08Zm2.74-2.829h-.005a.457.457,0,1,0-.895-.175c-.183,1.983-.353,3.969-.523,5.955a.454.454,0,1,0,.9.121c.189-1.964.339-3.934.525-5.9ZM25.959,35.3c.135,1.611.278,3.19.418,4.8.035.393.065.787.11,1.18a.453.453,0,0,0,.9-.1c-.164-1.978-.342-3.953-.515-5.928a.46.46,0,1,0-.916.051Z" transform="translate(-17.374 -24.24)" fill="red"/><path d="M27.712,21.578H22.054c-.251,0-.253,0-.253-.251-.038-.706-.027-1.549.892-1.568.722-.005,1.444,0,2.169,0,.207,0,.207,0,.216-.21.145-1.978,2.589-1.137,3.909-1.32a1.327,1.327,0,0,1,1.361,1.334c.005.194.011.2.2.2h2.112c1-.016.994.889.962,1.652,0,.124-.051.17-.172.17q-2.869,0-5.739,0Zm0-1.821h1.6c.159,0,.183-.027.183-.183a.452.452,0,0,0-.485-.5c-.862-.005-1.727-.005-2.589,0a.454.454,0,0,0-.485.474c0,.186.019.21.21.21h1.568Z" transform="translate(-15.918 -13.298)" fill="red"/></g></g></svg>